<svg width="49" height="54" viewBox="0 0 49 54" fill="none" xmlns="http://www.w3.org/2000/svg">
<path d="M10.3833 47.195H38.6254C40.8536 47.195 42.6599 45.2239 42.6599 42.7925V11.9748C42.6599 9.54341 40.8536 7.57233 38.6254 7.57233H10.3833C8.15505 7.57233 6.34871 9.54341 6.34871 11.9748V42.7925C6.34871 45.2239 8.15505 47.195 10.3833 47.195ZM10.3833 47.195L32.5735 22.9811L42.6599 33.9874M20.4697 19.6792C20.4697 21.5028 19.115 22.9811 17.4438 22.9811C15.7726 22.9811 14.4179 21.5028 14.4179 19.6792C14.4179 17.8557 15.7726 16.3774 17.4438 16.3774C19.115 16.3774 20.4697 17.8557 20.4697 19.6792Z" stroke="#1E1E1E" stroke-width="4" stroke-linecap="round" stroke-linejoin="round"/>
</svg>
